<svg width="21" height="10" viewBox="0 0 21 10" fill="none" xmlns="http://www.w3.org/2000/svg">
    <path fill-rule="evenodd" clip-rule="evenodd"
        d="M5.85981 0.616733C5.6729 0.461089 5.36985 0.461089 5.18293 0.616733L0.140187 4.81579L0.0840028 4.87195C-0.0467075 5.03002 -0.0245865 5.24876 0.148335 5.38605L5.19108 9.38989L5.25866 9.43468C5.44823 9.53856 5.70562 9.51808 5.86777 9.37648L5.92156 9.3202C6.04631 9.16236 6.02172 8.94802 5.85166 8.81301L1.67891 5.5H20.0238L20.1094 5.49194C20.3315 5.44961 20.5 5.24546 20.5 5C20.5 4.72386 20.2868 4.5 20.0238 4.5H1.87229L5.85981 1.18037L5.91519 1.12517C6.04442 0.969841 6.02596 0.755083 5.85981 0.616733Z"
        fill="black" />
</svg>